# Blender v3.0.0 OBJ File: 'box.feeling.scared.blend'
# www.blender.org
mtllib box.feeling.scared.mtl
o Cube
v 1.019464 1.007654 -1.002215
v 1.015332 -0.992315 -0.991949
v 0.984356 1.017991 0.997451
v 0.980223 -0.981978 1.007716
v -0.980223 1.011606 -1.037344
v -0.984356 -0.988363 -1.027078
v -1.015332 1.021943 0.962321
v -1.019464 -0.978027 0.972587
vt 0.625000 0.500000
vt 0.875000 0.500000
vt 0.875000 0.750000
vt 0.625000 0.750000
vt 0.375000 0.750000
vt 0.625000 1.000000
vt 0.375000 1.000000
vt 0.375000 0.000000
vt 0.625000 0.000000
vt 0.625000 0.250000
vt 0.375000 0.250000
vt 0.125000 0.500000
vt 0.375000 0.500000
vt 0.125000 0.750000
vn 0.0021 1.0000 -0.0051
vn -0.0176 0.0052 0.9998
vn -0.9998 0.0020 -0.0176
vn -0.0021 -1.0000 0.0051
vn 0.9998 -0.0020 0.0176
vn 0.0176 -0.0052 -0.9998
usemtl Material
s off
f 1/1/1 5/2/1 7/3/1 3/4/1
f 4/5/2 3/4/2 7/6/2 8/7/2
f 8/8/3 7/9/3 5/10/3 6/11/3
f 6/12/4 2/13/4 4/5/4 8/14/4
f 2/13/5 1/1/5 3/4/5 4/5/5
f 6/11/6 5/10/6 1/1/6 2/13/6
