# Blender v3.0.0 OBJ File: 'square.tunnel.blend'
# www.blender.org
mtllib tunnels.mtl
o Circle
v -0.000002 -0.338919 -7.214555
v -0.000000 0.846471 -7.189483
v -0.000000 1.105661 -7.111500
v -0.000000 1.339779 -6.986361
v -0.000000 1.544984 -6.817953
v -0.000000 1.713392 -6.612748
v -0.000000 1.838531 -6.378629
v -0.000000 1.915593 -6.124596
v -0.000000 1.941615 -5.860412
v -0.000000 1.915593 -5.596229
v -0.000000 1.838531 -5.342195
v -0.000000 1.713393 -5.108077
v -0.000000 1.544984 -4.902872
v -0.000000 1.339779 -4.734463
v -0.000000 1.105661 -4.609324
v -0.000000 0.846471 -4.531341
v -0.000002 -0.338919 -4.506269
v -18.527916 1.105660 -4.609324
v -18.527916 1.339778 -4.734463
v -18.527916 1.544983 -4.902872
v -18.527916 1.713391 -5.108077
v -18.527916 1.838530 -5.342195
v -18.527916 1.915592 -5.596229
v -18.527916 1.941613 -5.860412
v -18.527916 1.915592 -6.124596
v -18.527916 1.838530 -6.378629
v -18.527916 1.713391 -6.612748
v -18.527916 1.544983 -6.817953
v -18.527916 1.339778 -6.986361
v -18.527916 1.105660 -7.111500
v -18.527916 0.846470 -7.189483
v -18.527920 -0.338921 -7.214555
v -18.527916 0.846470 -4.531341
v -18.527920 -0.338921 -4.506269
v -0.000002 -0.341614 -7.080386
v -0.000000 0.825449 -7.056945
v -0.000000 1.054307 -6.987521
v -0.000000 1.265225 -6.874784
v -0.000000 1.450095 -6.723064
v -0.000000 1.601815 -6.538193
v -0.000000 1.714553 -6.327276
v -0.000000 1.783976 -6.098417
v -0.000000 1.807418 -5.860412
v -0.000000 1.783976 -5.622407
v -0.000000 1.714553 -5.393548
v -0.000000 1.601815 -5.182631
v -0.000000 1.450095 -4.997760
v -0.000000 1.265225 -4.846041
v -0.000000 1.054307 -4.733303
v -0.000000 0.825449 -4.663879
v -0.000002 -0.341614 -4.640438
v -18.527916 1.054306 -4.733303
v -18.527916 1.265224 -4.846041
v -18.527916 1.450094 -4.997760
v -18.527916 1.601814 -5.182631
v -18.527916 1.714551 -5.393548
v -18.527916 1.783975 -5.622407
v -18.527916 1.807416 -5.860412
v -18.527916 1.783975 -6.098417
v -18.527916 1.714551 -6.327276
v -18.527916 1.601814 -6.538193
v -18.527916 1.450094 -6.723064
v -18.527916 1.265224 -6.874784
v -18.527916 1.054306 -6.987521
v -18.527916 0.825447 -7.056945
v -18.527920 -0.341616 -7.080386
v -18.527916 0.825447 -4.663879
v -18.527920 -0.341616 -4.640438
vt 0.000000 0.000000
vt 0.000000 0.000000
vt 0.000000 0.000000
vt 0.000000 0.000000
vt 0.000000 0.000000
vt 0.000000 0.000000
vt 0.000000 0.000000
vt 0.000000 0.000000
vt 0.000000 0.000000
vt 0.000000 0.000000
vt 0.000000 0.000000
vt 0.000000 0.000000
vt 0.000000 0.000000
vt 0.000000 0.000000
vt 0.000000 0.000000
vt 0.000000 0.000000
vt 0.000000 0.000000
vt 0.000000 0.000000
vt 0.000000 0.000000
vt 0.000000 0.000000
vt 0.000000 0.000000
vt 0.000000 0.000000
vt 0.000000 0.000000
vt 0.000000 0.000000
vt 0.000000 0.000000
vt 0.000000 0.000000
vt 0.000000 0.000000
vt 0.000000 0.000000
vt 0.000000 0.000000
vt 0.000000 0.000000
vt 0.000000 0.000000
vt 0.000000 0.000000
vt 0.000000 0.000000
vt 0.000000 0.000000
vt 0.000000 0.000000
vt 0.000000 0.000000
vt 0.000000 0.000000
vt 0.000000 0.000000
vt 0.000000 0.000000
vt 0.000000 0.000000
vt 0.000000 0.000000
vt 0.000000 0.000000
vt 0.000000 0.000000
vt 0.000000 0.000000
vt 0.000000 0.000000
vt 0.000000 0.000000
vt 0.000000 0.000000
vt 0.000000 0.000000
vt 0.000000 0.000000
vt 0.000000 0.000000
vt 0.000000 0.000000
vt 0.000000 0.000000
vt 0.000000 0.000000
vt 0.000000 0.000000
vt 0.000000 0.000000
vt 0.000000 0.000000
vt 0.000000 0.000000
vt 0.000000 0.000000
vt 0.000000 0.000000
vt 0.000000 0.000000
vt 0.000000 0.000000
vt 0.000000 0.000000
vt 0.000000 0.000000
vt 0.000000 0.000000
vt 0.000000 0.000000
vt 0.000000 0.000000
vt 0.000000 0.000000
vt 0.000000 0.000000
vn -0.0000 0.7730 -0.6344
vn -0.0000 0.6344 0.7730
vn -0.0000 0.8819 -0.4714
vn -0.0000 0.4714 0.8819
vn -0.0000 0.9569 -0.2903
vn -0.0000 0.2881 0.9576
vn -0.0000 0.9952 -0.0980
vn -0.0000 0.0211 -0.9998
vn 0.0000 0.0211 0.9998
vn -0.0000 0.9952 0.0980
vn -0.0000 0.2881 -0.9576
vn -0.0000 0.9569 0.2903
vn -0.0000 0.4714 -0.8819
vn -0.0000 0.8819 0.4714
vn -0.0000 0.6344 -0.7730
vn -0.0000 0.7730 0.6344
vn 0.0000 -0.7730 0.6344
vn 0.0000 -0.6344 -0.7730
vn 0.0000 -0.8819 0.4714
vn 0.0000 -0.4714 -0.8819
vn 0.0000 -0.9569 0.2903
vn 0.0000 -0.2903 -0.9569
vn 0.0000 -0.9952 0.0980
vn -0.0000 -0.0201 0.9998
vn 0.0000 -0.0201 -0.9998
vn 0.0000 -0.9952 -0.0980
vn 0.0000 -0.2903 0.9569
vn 0.0000 -0.9569 -0.2903
vn 0.0000 -0.4714 0.8819
vn 0.0000 -0.8819 -0.4714
vn 0.0000 -0.6344 0.7730
vn 0.0000 -0.7730 -0.6344
vn 1.0000 -0.0000 -0.0000
vn -1.0000 0.0000 -0.0000
vn 0.0000 -0.9998 -0.0201
vn 0.0000 -0.9998 0.0201
usemtl None
s off
f 6/1/1 5/2/1 28/3/1 27/4/1
f 14/5/2 13/6/2 20/7/2 19/8/2
f 7/9/3 6/1/3 27/4/3 26/10/3
f 15/11/4 14/5/4 19/8/4 18/12/4
f 8/13/5 7/9/5 26/10/5 25/14/5
f 16/15/6 15/11/6 18/12/6 33/16/6
f 9/17/7 8/13/7 25/14/7 24/18/7
f 2/19/8 1/20/8 32/21/8 31/22/8
f 17/23/9 16/15/9 33/16/9 34/24/9
f 10/25/10 9/17/10 24/18/10 23/26/10
f 3/27/11 2/19/11 31/22/11 30/28/11
f 11/29/12 10/25/12 23/26/12 22/30/12
f 4/31/13 3/27/13 30/28/13 29/32/13
f 12/33/14 11/29/14 22/30/14 21/34/14
f 5/2/15 4/31/15 29/32/15 28/3/15
f 13/6/16 12/33/16 21/34/16 20/7/16
f 40/35/17 61/36/17 62/37/17 39/38/17
f 48/39/18 53/40/18 54/41/18 47/42/18
f 41/43/19 60/44/19 61/36/19 40/35/19
f 49/45/20 52/46/20 53/40/20 48/39/20
f 42/47/21 59/48/21 60/44/21 41/43/21
f 50/49/22 67/50/22 52/46/22 49/45/22
f 43/51/23 58/52/23 59/48/23 42/47/23
f 36/53/24 65/54/24 66/55/24 35/56/24
f 51/57/25 68/58/25 67/50/25 50/49/25
f 44/59/26 57/60/26 58/52/26 43/51/26
f 37/61/27 64/62/27 65/54/27 36/53/27
f 45/63/28 56/64/28 57/60/28 44/59/28
f 38/65/29 63/66/29 64/62/29 37/61/29
f 46/67/30 55/68/30 56/64/30 45/63/30
f 39/38/31 62/37/31 63/66/31 38/65/31
f 47/42/32 54/41/32 55/68/32 46/67/32
f 1/20/33 2/19/33 36/53/33 35/56/33
f 2/19/33 3/27/33 37/61/33 36/53/33
f 3/27/33 4/31/33 38/65/33 37/61/33
f 4/31/33 5/2/33 39/38/33 38/65/33
f 5/2/33 6/1/33 40/35/33 39/38/33
f 6/1/33 7/9/33 41/43/33 40/35/33
f 7/9/33 8/13/33 42/47/33 41/43/33
f 8/13/33 9/17/33 43/51/33 42/47/33
f 9/17/33 10/25/33 44/59/33 43/51/33
f 10/25/33 11/29/33 45/63/33 44/59/33
f 11/29/33 12/33/33 46/67/33 45/63/33
f 12/33/33 13/6/33 47/42/33 46/67/33
f 13/6/33 14/5/33 48/39/33 47/42/33
f 14/5/33 15/11/33 49/45/33 48/39/33
f 15/11/33 16/15/33 50/49/33 49/45/33
f 16/15/33 17/23/33 51/57/33 50/49/33
f 34/24/34 33/16/34 67/50/34 68/58/34
f 33/16/34 18/12/34 52/46/34 67/50/34
f 18/12/34 19/8/34 53/40/34 52/46/34
f 19/8/34 20/7/34 54/41/34 53/40/34
f 20/7/34 21/34/34 55/68/34 54/41/34
f 21/34/34 22/30/34 56/64/34 55/68/34
f 22/30/34 23/26/34 57/60/34 56/64/34
f 23/26/34 24/18/34 58/52/34 57/60/34
f 24/18/34 25/14/34 59/48/34 58/52/34
f 25/14/34 26/10/34 60/44/34 59/48/34
f 26/10/34 27/4/34 61/36/34 60/44/34
f 27/4/34 28/3/34 62/37/34 61/36/34
f 28/3/34 29/32/34 63/66/34 62/37/34
f 29/32/34 30/28/34 64/62/34 63/66/34
f 30/28/34 31/22/34 65/54/34 64/62/34
f 31/22/34 32/21/34 66/55/34 65/54/34
f 32/21/35 1/20/35 35/56/35 66/55/35
f 17/23/36 34/24/36 68/58/36 51/57/36
o Circle.002
v -0.646629 1.503016 -3.339441
v -0.646629 1.695932 -2.978519
v -0.646629 1.814730 -2.586897
v -0.646629 1.854843 -2.179623
v -0.646629 1.814730 -1.772349
v -0.646629 1.695933 -1.380726
v -0.646629 1.503016 -1.019804
v -22.883123 -1.102648 -3.339441
v -22.883123 -1.102648 -1.019804
v -0.646629 -1.102648 -1.019804
v -0.646629 -1.102648 -3.339441
v -22.883123 1.503016 -1.019804
v -22.883123 1.695933 -1.380726
v -22.883123 1.814730 -1.772349
v -22.883123 1.854843 -2.179623
v -22.883123 1.814730 -2.586897
v -22.883123 1.695932 -2.978519
v -22.883123 1.503016 -3.339441
v -0.646629 1.406427 -3.178287
v -0.646629 1.522353 -2.906621
v -0.646629 1.630457 -2.550245
v -0.646629 1.666957 -2.179623
v -0.646629 1.630457 -1.809000
v -0.646629 1.522353 -1.452624
v -0.646629 1.406427 -1.180958
v -22.883123 -1.102648 -3.151556
v -22.883123 -1.102648 -1.207690
v -0.646629 -1.102648 -1.207690
v -0.646629 -1.102648 -3.151556
v -22.883123 1.406427 -1.180958
v -22.883123 1.522353 -1.452624
v -22.883123 1.630457 -1.809000
v -22.883123 1.666957 -2.179623
v -22.883123 1.630457 -2.550245
v -22.883123 1.522353 -2.906621
v -22.883123 1.406427 -3.178287
vt 0.000000 0.000000
vt 0.000000 0.000000
vt 0.000000 0.000000
vt 0.000000 0.000000
vt 0.000000 0.000000
vt 0.000000 0.000000
vt 0.000000 0.000000
vt 0.000000 0.000000
vt 0.000000 0.000000
vt 0.000000 0.000000
vt 0.000000 0.000000
vt 0.000000 0.000000
vt 0.000000 0.000000
vt 0.000000 0.000000
vt 0.000000 0.000000
vt 0.000000 0.000000
vt 0.000000 0.000000
vt 0.000000 0.000000
vt 0.000000 0.000000
vt 0.000000 0.000000
vt 0.000000 0.000000
vt 0.000000 0.000000
vt 0.000000 0.000000
vt 0.000000 0.000000
vt 0.000000 0.000000
vt 0.000000 0.000000
vt 0.000000 0.000000
vt 0.000000 0.000000
vt 0.000000 0.000000
vt 0.000000 0.000000
vt 0.000000 0.000000
vt 0.000000 0.000000
vt 0.000000 0.000000
vt 0.000000 0.000000
vt 0.000000 0.000000
vt 0.000000 0.000000
vn 0.0000 0.8819 -0.4714
vn 0.0000 0.8819 0.4714
vn 0.0000 0.9952 0.0980
vn 0.0000 0.9569 -0.2903
vn 0.0000 0.9569 0.2903
vn 0.0000 0.9952 -0.0980
vn 0.0000 0.0000 -1.0000
vn 0.0000 0.0000 1.0000
vn 0.0000 -0.9198 0.3925
vn 0.0000 -0.9198 -0.3925
vn 0.0000 -0.9952 -0.0980
vn 0.0000 -0.9569 0.2903
vn 0.0000 -0.9569 -0.2903
vn 0.0000 -0.9952 0.0980
vn 0.0000 0.0107 0.9999
vn 0.0000 0.0107 -0.9999
vn 1.0000 0.0000 0.0000
vn -1.0000 0.0000 0.0000
vn 0.0000 -1.0000 0.0000
usemtl None
s off
f 70/69/37 69/70/37 86/71/37 85/72/37
f 75/73/38 74/74/38 81/75/38 80/76/38
f 73/77/39 72/78/39 83/79/39 82/80/39
f 71/81/40 70/69/40 85/72/40 84/82/40
f 74/74/41 73/77/41 82/80/41 81/75/41
f 72/78/42 71/81/42 84/82/42 83/79/42
f 86/71/43 69/70/43 79/83/43 76/84/43
f 75/73/44 80/76/44 77/85/44 78/86/44
f 88/87/45 103/88/45 104/89/45 87/90/45
f 93/91/46 98/92/46 99/93/46 92/94/46
f 91/95/47 100/96/47 101/97/47 90/98/47
f 89/99/48 102/100/48 103/88/48 88/87/48
f 92/94/49 99/93/49 100/96/49 91/95/49
f 90/98/50 101/97/50 102/100/50 89/99/50
f 104/89/51 94/101/51 97/102/51 87/90/51
f 93/91/52 96/103/52 95/104/52 98/92/52
f 69/70/53 70/69/53 88/87/53 87/90/53
f 70/69/53 71/81/53 89/99/53 88/87/53
f 71/81/53 72/78/53 90/98/53 89/99/53
f 72/78/53 73/77/53 91/95/53 90/98/53
f 73/77/53 74/74/53 92/94/53 91/95/53
f 74/74/53 75/73/53 93/91/53 92/94/53
f 77/85/54 80/76/54 98/92/54 95/104/54
f 75/73/53 78/86/53 96/103/53 93/91/53
f 79/83/53 69/70/53 87/90/53 97/102/53
f 86/71/54 76/84/54 94/101/54 104/89/54
f 76/84/55 79/83/55 97/102/55 94/101/55
f 78/86/55 77/85/55 95/104/55 96/103/55
f 80/76/54 81/75/54 99/93/54 98/92/54
f 81/75/54 82/80/54 100/96/54 99/93/54
f 82/80/54 83/79/54 101/97/54 100/96/54
f 83/79/54 84/82/54 102/100/54 101/97/54
f 84/82/54 85/72/54 103/88/54 102/100/54
f 85/72/54 86/71/54 104/89/54 103/88/54
